<svg viewBox="0 0 26.6655 32" xmlns="http://www.w3.org/2000/svg" xmlns:xlink="http://www.w3.org/1999/xlink" width="26.665466" height="32.000000" fill="none" customFrame="#000000">
	<g id="cloud">
		<path id="水滴" d="M3.9045 22.6268C2.2507 20.9865 1.06039 18.9378 0.454455 16.6887C-0.151485 14.4396 -0.151485 12.0702 0.454457 9.82106C1.0604 7.57196 2.2507 5.52325 3.9045 3.88296C9.11111 -1.29432 17.5537 -1.29432 22.7603 3.88296C24.4144 5.52328 25.6049 7.57213 26.2109 9.82143C26.817 12.0707 26.817 14.4403 26.2109 16.6896C25.6049 18.9389 24.4144 20.9878 22.7603 22.6281L13.3324 32L3.9045 22.6268L3.9045 22.6268Z" fill="rgb(255,0,0)" fill-rule="nonzero" />
		<path id="云" d="M19.6929 13.3713C19.2913 12.5776 18.8148 12.2151 18.2382 12.0416C17.7273 11.8885 17.1226 11.9026 17.1226 11.9026C17.1226 11.9026 17.1476 11.4291 17.0023 10.9947C16.8273 10.4713 16.3867 9.81349 15.6726 9.39631C14.971 8.98693 14.2226 8.94943 13.6617 9.04162C12.9288 9.16193 12.407 9.41193 11.921 10.0088C11.607 10.3916 11.4257 10.9072 11.4257 10.9072C11.4257 10.9072 10.996 10.6729 10.5726 10.6666C9.91947 10.6572 9.44447 11.026 9.24603 11.4916C9.08353 11.8713 9.13978 12.3776 9.13978 12.3776C9.13978 12.3776 8.78197 12.2869 8.42103 12.2901C8.0476 12.2932 7.45384 12.3572 6.83666 12.8838C6.38041 13.2744 5.93978 13.9307 6.00697 14.8541C6.08197 15.8807 6.81322 17.6822 12.7851 17.6651C18.8882 17.6479 19.6117 16.0135 19.8288 15.4369C20.1117 14.6901 20.032 14.0385 19.6929 13.3713Z" fill="rgb(255,255,255)" fill-rule="nonzero" />
	</g>
</svg>
