<svg viewBox="0 0 26.6655 32" xmlns="http://www.w3.org/2000/svg" xmlns:xlink="http://www.w3.org/1999/xlink" width="26.665466" height="32.000000" fill="none" customFrame="#000000">
	<g id="rain">
		<path id="水滴" d="M3.9045 22.6268C2.2507 20.9865 1.06039 18.9378 0.454455 16.6887C-0.151485 14.4396 -0.151485 12.0702 0.454457 9.82106C1.0604 7.57196 2.2507 5.52325 3.9045 3.88296C9.11111 -1.29432 17.5537 -1.29432 22.7603 3.88296C24.4144 5.52328 25.6049 7.57213 26.2109 9.82143C26.817 12.0707 26.817 14.4403 26.2109 16.6896C25.6049 18.9389 24.4144 20.9878 22.7603 22.6281L13.3324 32L3.9045 22.6268L3.9045 22.6268Z" fill="rgb(255,0,0)" fill-rule="nonzero" />
		<path id="雨" d="M19.6928 13.3713C19.2912 12.5776 18.8146 12.2151 18.2381 12.0416C17.7271 11.8885 17.1224 11.9026 17.1224 11.9026C17.1224 11.9026 17.1474 11.4291 17.0021 10.9947C16.8271 10.4713 16.3865 9.81349 15.6724 9.39631C14.9709 8.98693 14.2224 8.94943 13.6615 9.04162C12.9287 9.16193 12.4068 9.41193 11.9209 10.0088C11.6068 10.3916 11.4256 10.9072 11.4256 10.9072C11.4256 10.9072 10.9959 10.6729 10.5724 10.6666C9.91932 10.6572 9.44432 11.026 9.24588 11.4916C9.08338 11.8713 9.13963 12.3776 9.13963 12.3776C9.13963 12.3776 8.78182 12.2869 8.42088 12.2901C8.04744 12.2932 7.45369 12.3572 6.8365 12.8838C6.38025 13.2744 5.93963 13.9307 6.00682 14.8541C6.08182 15.8807 6.81307 17.6822 12.7849 17.6651C18.8881 17.6479 19.6115 16.0135 19.8287 15.4369C20.1115 14.6901 20.0318 14.0385 19.6928 13.3713ZM11.0959 19.9338C11.0959 19.4322 10.3818 18.6619 10.3818 18.6619C10.3818 18.6619 9.66775 19.4322 9.66775 19.9338C9.66775 20.4354 9.88807 20.6604 10.3818 20.6604C10.8756 20.6604 11.0959 20.4369 11.0959 19.9338ZM12.999 18.3307C12.999 18.3307 12.2849 19.0994 12.2849 19.6026C12.2849 20.1041 12.5053 20.3291 12.999 20.3291C13.4912 20.3291 13.7131 20.1041 13.7131 19.6026C13.7131 19.0994 12.999 18.3307 12.999 18.3307ZM14.9021 19.9338C14.9021 20.4354 15.1224 20.6604 15.6162 20.6604C16.1084 20.6604 16.3303 20.4354 16.3303 19.9338C16.3303 19.4322 15.6162 18.6619 15.6162 18.6619C15.6162 18.6619 14.9021 19.4322 14.9021 19.9338ZM10.9068 21.9322C10.9068 22.4338 11.1271 22.6588 11.6209 22.6588C12.1131 22.6588 12.3349 22.4338 12.3349 21.9322C12.3349 21.4307 11.6209 20.6604 11.6209 20.6604C11.6209 20.6604 10.9068 21.4307 10.9068 21.9322ZM13.5709 21.9322C13.5709 22.4338 13.7912 22.6588 14.2849 22.6588C14.7771 22.6588 14.999 22.4338 14.999 21.9322C14.999 21.4307 14.2849 20.6604 14.2849 20.6604C14.2849 20.6604 13.5709 21.4307 13.5709 21.9322Z" fill="rgb(255,255,255)" fill-rule="nonzero" />
	</g>
</svg>
