<svg viewBox="0 0 26.6655 32" xmlns="http://www.w3.org/2000/svg" xmlns:xlink="http://www.w3.org/1999/xlink" width="26.665466" height="32.000000" fill="none" customFrame="#000000">
	<g id="snow">
		<path id="水滴" d="M3.9045 22.6268C2.2507 20.9865 1.06039 18.9378 0.454455 16.6887C-0.151485 14.4396 -0.151485 12.0702 0.454457 9.82106C1.0604 7.57196 2.2507 5.52325 3.9045 3.88296C9.11111 -1.29432 17.5537 -1.29432 22.7603 3.88296C24.4144 5.52328 25.6049 7.57213 26.2109 9.82143C26.817 12.0707 26.817 14.4403 26.2109 16.6896C25.6049 18.9389 24.4144 20.9878 22.7603 22.6281L13.3324 32L3.9045 22.6268L3.9045 22.6268Z" fill="rgb(255,0,0)" fill-rule="nonzero" />
		<path id="雪" d="M18.9345 17.0328L16.7871 15.793L18.8095 15.1611C18.9798 15.1079 19.0747 14.9267 19.0215 14.7563C18.9683 14.586 18.787 14.4909 18.6167 14.5443L16.0262 15.3537L13.6463 13.9796L15.9843 12.6298L18.6167 13.4523C18.6488 13.4623 18.6812 13.4671 18.7132 13.4671C18.8508 13.4671 18.9783 13.3785 19.0215 13.2402C19.0747 13.0699 18.9798 12.8887 18.8094 12.8354L16.7452 12.1905L18.9183 10.9358C19.0729 10.8466 19.1259 10.649 19.0366 10.4944C18.9474 10.3399 18.7498 10.2869 18.5952 10.3761L16.4479 11.6159L16.9118 9.5486C16.9509 9.37448 16.8414 9.20164 16.6672 9.16258C16.493 9.12332 16.3202 9.23301 16.2812 9.40711L15.6869 12.0552L13.3235 13.4198L13.3235 10.7251L15.3355 8.87186C15.4667 8.75093 15.4751 8.54651 15.3542 8.41524C15.2333 8.28404 15.0289 8.27558 14.8976 8.3965L13.3235 9.84643L13.3235 7.34328C13.3235 7.16481 13.1788 7.02014 13.0004 7.02014C12.8219 7.02014 12.6772 7.16481 12.6772 7.34328L12.6772 9.84709L11.1023 8.39646C10.9711 8.27556 10.7667 8.28396 10.6457 8.4152C10.5248 8.54647 10.5332 8.75089 10.6645 8.87181L12.6772 10.7258L12.6772 13.4201L10.3224 12.0606L9.72811 9.41246C9.68903 9.2383 9.51619 9.12866 9.34206 9.16792C9.16793 9.20698 9.05843 9.37982 9.09751 9.55394L9.56142 11.6212L7.40479 10.3761C7.25025 10.2869 7.05258 10.3398 6.96337 10.4944C6.87414 10.6489 6.92709 10.8466 7.08165 10.9358L9.26405 12.1958L7.19987 12.8408C7.02952 12.894 6.93459 13.0752 6.98781 13.2456C7.03101 13.3839 7.15854 13.4724 7.29614 13.4724C7.32806 13.4724 7.36053 13.4677 7.3926 13.4576L10.025 12.6351L12.3537 13.9796L9.98309 15.3483L7.39262 14.5389C7.2223 14.4857 7.04105 14.5806 6.98781 14.751C6.93458 14.9213 7.02952 15.1025 7.19987 15.1558L9.22215 15.7877L7.0655 17.0328C6.91095 17.122 6.85797 17.3197 6.94723 17.4742C7.00707 17.5779 7.11569 17.6359 7.22737 17.6359C7.28218 17.6359 7.33776 17.6219 7.38864 17.5925L9.57105 16.3325L9.09753 18.4426C9.05845 18.6167 9.16793 18.7896 9.34208 18.8286C9.3659 18.834 9.38968 18.8365 9.41314 18.8365C9.56099 18.8365 9.6944 18.7344 9.72814 18.5841L10.332 15.8931L12.6773 14.5391L12.6773 17.2815L10.6645 19.1354C10.5332 19.2564 10.5248 19.4608 10.6457 19.5921C10.7667 19.7233 10.9711 19.7316 11.1023 19.6108L12.6772 18.1602L12.6772 20.6567C12.6772 20.8351 12.8219 20.9798 13.0004 20.9798C13.1788 20.9798 13.3235 20.8351 13.3235 20.6567L13.3235 18.1609L14.8976 19.6108C14.9598 19.668 15.0382 19.6963 15.1165 19.6963C15.2036 19.6963 15.2905 19.6612 15.3542 19.5921C15.4751 19.4608 15.4667 19.2564 15.3355 19.1355L13.3235 17.2822L13.3235 14.5395L15.6773 15.8985L16.2812 18.5895C16.315 18.7398 16.4483 18.8419 16.5962 18.8419C16.6196 18.8419 16.6435 18.8394 16.6673 18.834C16.8414 18.7949 16.9509 18.6221 16.9118 18.448L16.4383 16.3379L18.6114 17.5925C18.6623 17.6219 18.7178 17.6359 18.7726 17.6359C18.8843 17.6359 18.993 17.5779 19.0528 17.4742C19.142 17.3197 19.0891 17.122 18.9345 17.0328Z" fill="rgb(255,255,255)" fill-rule="nonzero" />
		<path id="雪" d="M16.7871 15.793L18.8095 15.1611C18.9798 15.1079 19.0747 14.9267 19.0215 14.7563C18.9683 14.586 18.787 14.4909 18.6167 14.5443L16.0262 15.3537L13.6463 13.9796L15.9843 12.6298L18.6167 13.4523C18.6488 13.4623 18.6812 13.4671 18.7132 13.4671C18.8508 13.4671 18.9783 13.3785 19.0215 13.2402C19.0747 13.0699 18.9798 12.8887 18.8094 12.8354L16.7452 12.1905L18.9183 10.9358C19.0729 10.8466 19.1259 10.649 19.0366 10.4944C18.9474 10.3399 18.7498 10.2869 18.5952 10.3761L16.4479 11.6159L16.9118 9.5486C16.9509 9.37448 16.8414 9.20164 16.6672 9.16258C16.493 9.12332 16.3202 9.23301 16.2812 9.40711L15.6869 12.0552L13.3235 13.4198L13.3235 10.7251L15.3355 8.87186C15.4667 8.75093 15.4751 8.54651 15.3542 8.41524C15.2333 8.28404 15.0289 8.27558 14.8976 8.3965L13.3235 9.84643L13.3235 7.34328C13.3235 7.16481 13.1788 7.02014 13.0004 7.02014C12.8219 7.02014 12.6772 7.16481 12.6772 7.34328L12.6772 9.84709L11.1023 8.39646C10.9711 8.27556 10.7667 8.28396 10.6457 8.4152C10.5248 8.54647 10.5332 8.75089 10.6645 8.87181L12.6772 10.7258L12.6772 13.4201L10.3224 12.0606L9.72811 9.41246C9.68903 9.2383 9.51619 9.12866 9.34206 9.16792C9.16793 9.20698 9.05843 9.37982 9.09751 9.55394L9.56142 11.6212L7.40479 10.3761C7.25025 10.2869 7.05258 10.3398 6.96337 10.4944C6.87414 10.6489 6.92709 10.8466 7.08165 10.9358L9.26405 12.1958L7.19987 12.8408C7.02952 12.894 6.93459 13.0752 6.98781 13.2456C7.03101 13.3839 7.15854 13.4724 7.29614 13.4724C7.32806 13.4724 7.36053 13.4677 7.3926 13.4576L10.025 12.6351L12.3537 13.9796L9.98309 15.3483L7.39262 14.5389C7.2223 14.4857 7.04105 14.5806 6.98781 14.751C6.93458 14.9213 7.02952 15.1025 7.19987 15.1558L9.22215 15.7877L7.0655 17.0328C6.91095 17.122 6.85797 17.3197 6.94723 17.4742C7.00707 17.5779 7.11569 17.6359 7.22737 17.6359C7.28218 17.6359 7.33776 17.6219 7.38864 17.5925L9.57105 16.3325L9.09753 18.4426C9.05845 18.6167 9.16793 18.7896 9.34208 18.8286C9.3659 18.834 9.38968 18.8365 9.41314 18.8365C9.56099 18.8365 9.6944 18.7344 9.72814 18.5841L10.332 15.8931L12.6773 14.5391L12.6773 17.2815L10.6645 19.1354C10.5332 19.2564 10.5248 19.4608 10.6457 19.5921C10.7667 19.7233 10.9711 19.7316 11.1023 19.6108L12.6772 18.1602L12.6772 20.6567C12.6772 20.8351 12.8219 20.9798 13.0004 20.9798C13.1788 20.9798 13.3235 20.8351 13.3235 20.6567L13.3235 18.1609L14.8976 19.6108C14.9598 19.668 15.0382 19.6963 15.1165 19.6963C15.2036 19.6963 15.2905 19.6612 15.3542 19.5921C15.4751 19.4608 15.4667 19.2564 15.3355 19.1355L13.3235 17.2822L13.3235 14.5395L15.6773 15.8985L16.2812 18.5895C16.315 18.7398 16.4483 18.8419 16.5962 18.8419C16.6196 18.8419 16.6435 18.8394 16.6673 18.834C16.8414 18.7949 16.9509 18.6221 16.9118 18.448L16.4383 16.3379L18.6114 17.5925C18.6623 17.6219 18.7178 17.6359 18.7726 17.6359C18.8843 17.6359 18.993 17.5779 19.0528 17.4742C19.142 17.3197 19.0891 17.122 18.9345 17.0328L16.7871 15.793Z" fill-rule="nonzero" stroke="rgb(255,255,255)" stroke-width="1.000000" />
	</g>
</svg>
