<svg viewBox="0 0 26.6655 32" xmlns="http://www.w3.org/2000/svg" xmlns:xlink="http://www.w3.org/1999/xlink" width="26.665466" height="32.000000" fill="none" customFrame="#000000">
	<g id="sun">
		<path id="水滴" d="M3.9045 22.6268C2.2507 20.9865 1.06039 18.9378 0.454455 16.6887C-0.151485 14.4396 -0.151485 12.0702 0.454457 9.82106C1.0604 7.57196 2.2507 5.52325 3.9045 3.88296C9.11111 -1.29432 17.5537 -1.29432 22.7603 3.88296C24.4144 5.52328 25.6049 7.57213 26.2109 9.82143C26.817 12.0707 26.817 14.4403 26.2109 16.6896C25.6049 18.9389 24.4144 20.9878 22.7603 22.6281L13.3324 32L3.9045 22.6268L3.9045 22.6268Z" fill="rgb(255,0,0)" fill-rule="nonzero" />
		<path id="太阳" d="M9.47327 16.8697L8.4887 17.8543C8.30798 18.035 8.30798 18.3306 8.4887 18.5113C8.66943 18.692 8.96498 18.692 9.14571 18.5113L10.1303 17.5267C10.311 17.346 10.311 17.0505 10.1303 16.8697C9.94955 16.689 9.65399 16.689 9.47327 16.8697ZM9.19089 9.85354C9.37349 10.0361 9.67093 10.0361 9.85354 9.85354C10.0361 9.67093 10.0361 9.37349 9.85354 9.19089L8.85956 8.19691C8.67696 8.01431 8.37952 8.01431 8.19691 8.19691C8.01431 8.37952 8.01431 8.67696 8.19691 8.85956L9.19089 9.85354L9.19089 9.85354ZM7.875 13.0312L6.46875 13.0312C6.20896 13.0312 6 13.2402 6 13.5C6 13.7598 6.21084 13.9687 6.46875 13.9687L7.875 13.9687C8.13479 13.9687 8.34375 13.7598 8.34375 13.5C8.34375 13.2421 8.13291 13.0312 7.875 13.0312ZM13.5 8.34375C13.7598 8.34375 13.9688 8.13479 13.9688 7.875L13.9688 6.46875C13.9688 6.20896 13.7598 6 13.5 6C13.2402 6 13.0312 6.20896 13.0312 6.46875L13.0312 7.875C13.0312 8.13479 13.2421 8.34375 13.5 8.34375ZM18.0105 9.64646L18.9951 8.6619C19.1758 8.48117 19.1758 8.18562 18.9951 8.00489C18.8144 7.82417 18.5188 7.82417 18.3381 8.00489L17.3535 8.98946C17.1728 9.17018 17.1728 9.46574 17.3535 9.64646C17.5343 9.82907 17.8298 9.82907 18.0105 9.64646L18.0105 9.64646ZM20.5312 13.0312L19.125 13.0312C18.8652 13.0312 18.6562 13.2402 18.6562 13.5C18.6562 13.7598 18.8652 13.9687 19.125 13.9687L20.5312 13.9687C20.791 13.9687 21 13.7598 21 13.5C21 13.2421 20.791 13.0312 20.5312 13.0312ZM17.8091 17.1465C17.6265 16.9639 17.3291 16.9639 17.1465 17.1465C16.9639 17.3291 16.9639 17.6265 17.1465 17.8091L18.1404 18.8031C18.323 18.9857 18.6205 18.9857 18.8031 18.8031C18.9857 18.6205 18.9857 18.323 18.8031 18.1404L17.8091 17.1465ZM13.5 9.27937C11.1675 9.27937 9.27748 11.1694 9.27748 13.5019C9.27748 15.8343 11.1675 17.7244 13.5 17.7244C15.8325 17.7244 17.7225 15.8343 17.7225 13.5019C17.7225 11.1694 15.8325 9.27937 13.5 9.27937ZM13.5 18.6562C13.2402 18.6562 13.0312 18.8652 13.0312 19.125L13.0312 20.5312C13.0312 20.791 13.2402 21 13.5 21C13.7598 21 13.9688 20.791 13.9688 20.5312L13.9688 19.125C13.9688 18.8671 13.7598 18.6562 13.5 18.6562Z" fill="rgb(255,255,255)" fill-rule="nonzero" />
	</g>
</svg>
