<svg viewBox="0 0 20 20" xmlns="http://www.w3.org/2000/svg" width="20" height="20" fill="none">
	<g id="typhoon">
		<g class="typhoon-spin">
			<path id="wind" d="M18.0589 9.79479C18.0589 11.9155 17.2078 14.1649 15.8318 15.5546C15.1367 16.2567 12.5909 18.3993 9.02943 19.3944C5.54071 20.3692 1.03903 19.8744 0 19.8744C0 19.8744 2.34458 19.0352 3.80187 18.027C5.21696 17.048 5.70279 16.5146 5.70279 16.5146C3.4757 15.0746 2.37617 11.9155 2.37617 9.79479C2.37617 7.67414 3.37633 5.42501 4.75233 4.03528C6.12834 2.64555 7.60372 1.63541 10.9304 0.675432C14.257 -0.284548 19.2504 0.00255923 19.9598 0.195554C20.3203 0.29362 18.1787 0.856242 16.6332 1.63545C15.0877 2.41466 14.257 3.07534 14.257 3.07534C14.257 3.07534 15.1319 3.65759 15.8318 4.36451C17.2078 5.75424 18.0589 7.67414 18.0589 9.79479Z" fill="var(--ty-color,#ef4444)" fill-rule="evenodd" />
		</g>
	</g>
</svg>
