<svg viewBox="0 0 26.6655 32" xmlns="http://www.w3.org/2000/svg" xmlns:xlink="http://www.w3.org/1999/xlink" width="26.665466" height="32.000000" fill="none" customFrame="#000000">
	<g id="wind">
		<path id="水滴" d="M3.9045 22.6268C2.2507 20.9865 1.06039 18.9378 0.454455 16.6887C-0.151485 14.4396 -0.151485 12.0702 0.454457 9.82106C1.0604 7.57196 2.2507 5.52325 3.9045 3.88296C9.11111 -1.29432 17.5537 -1.29432 22.7603 3.88296C24.4144 5.52328 25.6049 7.57213 26.2109 9.82143C26.817 12.0707 26.817 14.4403 26.2109 16.6896C25.6049 18.9389 24.4144 20.9878 22.7603 22.6281L13.3324 32L3.9045 22.6268L3.9045 22.6268Z" fill="rgb(255,0,0)" fill-rule="nonzero" />
		<path id="台风" d="M13.2477 14.0383C17.3457 14.0383 19.7029 13.0003 19.7029 11.5874C19.7029 10.2883 17.8346 9.4914 15.1494 9.4914C13.1406 9.4914 11.5803 9.87997 10.3951 10.4423C10.0666 10.5965 10 10.9108 10.1137 11.1388C10.2477 11.3931 10.5757 11.4603 10.8503 11.3531C11.9151 10.8977 13.2746 10.4623 15.0891 10.4623C17.3457 10.4623 18.6583 10.998 18.6583 11.5805C18.6583 12.2637 16.616 13.0337 13.2009 13.0337C9.83914 13.0337 8.04457 12.3708 8.04457 11.1051C8.04457 10.3685 8.72743 9.57854 10.6694 8.95568C10.9909 8.84854 11.1314 8.58711 11.038 8.31282C10.944 8.03854 10.7031 7.93111 10.328 8.04482C8.08486 8.71482 7 9.8934 7 11.132C7 13.0337 9.14943 14.0383 13.2477 14.0383L13.2477 14.0383ZM13.4486 16.248C15.5446 16.248 17.4731 15.9065 18.8326 15.344C19.0937 15.2368 19.2209 14.9757 19.0937 14.7414C18.9731 14.5071 18.732 14.4671 18.4309 14.5805C17.1851 15.0563 15.3906 15.3777 13.4486 15.3777C12.0086 15.3777 10.3683 15.2034 9.08257 14.8217C8.78114 14.7345 8.53343 14.8285 8.45971 15.0828C8.37943 15.3305 8.50657 15.5717 8.82143 15.6588C10.2009 16.0474 11.942 16.248 13.4486 16.248ZM13.904 18.4311C15.6517 18.4177 17.3057 18.1631 18.8057 17.6543C19.1671 17.5271 19.2143 17.2457 19.1337 17.0383C19.04 16.804 18.7989 16.7368 18.4574 16.844C16.9709 17.3263 15.4909 17.5605 13.904 17.5605C13.2277 17.5605 12.5243 17.5071 11.9686 17.4334C11.6471 17.3934 11.4463 17.5203 11.406 17.7614C11.3591 18.0025 11.4866 18.23 11.8346 18.2905C12.3503 18.3843 13.0669 18.4377 13.904 18.4311ZM13.2943 20.4868C14.5129 20.6274 15.9794 20.6008 17.2386 20.2525C17.5397 20.1723 17.6537 19.9043 17.58 19.67C17.4997 19.4223 17.2651 19.3285 16.9437 19.4088C15.8589 19.69 14.6066 19.7837 13.4417 19.6365C13.12 19.6031 12.8926 19.7503 12.8657 19.998C12.8323 20.246 12.9594 20.4534 13.2943 20.4868L13.2943 20.4868ZM12.8323 22.6163C13.2609 22.67 13.7494 22.6634 14.1914 22.6097C14.4929 22.5697 14.64 22.3754 14.6134 22.1274C14.5934 21.9065 14.4126 21.746 14.0911 21.786C13.7226 21.8328 13.2874 21.8397 12.9126 21.7928C12.6046 21.7528 12.4237 21.9134 12.3903 22.1277C12.3634 22.3551 12.504 22.5763 12.8323 22.6163Z" fill="rgb(255,255,255)" fill-rule="nonzero" />
		<path id="台风" d="M19.7029 11.5874C19.7029 10.2883 17.8346 9.4914 15.1494 9.4914C13.1406 9.4914 11.5803 9.87997 10.3951 10.4423C10.0666 10.5965 10 10.9108 10.1137 11.1388C10.2477 11.3931 10.5757 11.4603 10.8503 11.3531C11.9151 10.8977 13.2746 10.4623 15.0891 10.4623C17.3457 10.4623 18.6583 10.998 18.6583 11.5805C18.6583 12.2637 16.616 13.0337 13.2009 13.0337C9.83914 13.0337 8.04457 12.3708 8.04457 11.1051C8.04457 10.3685 8.72743 9.57854 10.6694 8.95568C10.9909 8.84854 11.1314 8.58711 11.038 8.31282C10.944 8.03854 10.7031 7.93111 10.328 8.04482C8.08486 8.71482 7 9.8934 7 11.132C7 13.0337 9.14943 14.0383 13.2477 14.0383L13.2477 14.0383C17.3457 14.0383 19.7029 13.0003 19.7029 11.5874ZM18.8326 15.344C19.0937 15.2368 19.2209 14.9757 19.0937 14.7414C18.9731 14.5071 18.732 14.4671 18.4309 14.5805C17.1851 15.0563 15.3906 15.3777 13.4486 15.3777C12.0086 15.3777 10.3683 15.2034 9.08257 14.8217C8.78114 14.7345 8.53343 14.8285 8.45971 15.0828C8.37943 15.3305 8.50657 15.5717 8.82143 15.6588C10.2009 16.0474 11.942 16.248 13.4486 16.248C15.5446 16.248 17.4731 15.9065 18.8326 15.344ZM18.8057 17.6543C19.1671 17.5271 19.2143 17.2457 19.1337 17.0383C19.04 16.804 18.7989 16.7368 18.4574 16.844C16.9709 17.3263 15.4909 17.5605 13.904 17.5605C13.2277 17.5605 12.5243 17.5071 11.9686 17.4334C11.6471 17.3934 11.4463 17.5203 11.406 17.7614C11.3591 18.0025 11.4866 18.23 11.8346 18.2905C12.3503 18.3843 13.0669 18.4377 13.904 18.4311C15.6517 18.4177 17.3057 18.1631 18.8057 17.6543ZM17.2386 20.2525C17.5397 20.1723 17.6537 19.9043 17.58 19.67C17.4997 19.4223 17.2651 19.3285 16.9437 19.4088C15.8589 19.69 14.6066 19.7837 13.4417 19.6365C13.12 19.6031 12.8926 19.7503 12.8657 19.998C12.8323 20.246 12.9594 20.4534 13.2943 20.4868L13.2943 20.4868C14.5129 20.6274 15.9794 20.6008 17.2386 20.2525ZM14.1914 22.6097C14.4929 22.5697 14.64 22.3754 14.6134 22.1274C14.5934 21.9065 14.4126 21.746 14.0911 21.786C13.7226 21.8328 13.2874 21.8397 12.9126 21.7928C12.6046 21.7528 12.4237 21.9134 12.3903 22.1277C12.3634 22.3551 12.504 22.5763 12.8323 22.6163C13.2609 22.67 13.7494 22.6634 14.1914 22.6097Z" fill-rule="nonzero" stroke="rgb(255,255,255)" stroke-width="1.000000" />
	</g>
</svg>
